<svg width="32" height="32" viewBox="0 0 32 32" fill="none" xmlns="http://www.w3.org/2000/svg">
  <defs>
    <linearGradient id="bg" x1="0%" y1="0%" x2="100%" y2="100%">
      <stop offset="0%" style="stop-color:#3B82F6"/>
      <stop offset="50%" style="stop-color:#6366F1"/>
      <stop offset="100%" style="stop-color:#8B5CF6"/>
    </linearGradient>
    <linearGradient id="shield" x1="0%" y1="0%" x2="100%" y2="100%">
      <stop offset="0%" style="stop-color:#FBBF24"/>
      <stop offset="100%" style="stop-color:#F59E0B"/>
    </linearGradient>
  </defs>
  
  <!-- Background circle -->
  <circle cx="16" cy="16" r="15" fill="url(#bg)"/>
  
  <!-- Shield -->
  <path d="M16 6 C12.5 6, 10 8.5, 10 12 L10 18 C10 22, 12.5 24.5, 16 26 C19.5 24.5, 22 22, 22 18 L22 12 C22 8.5, 19.5 6, 16 6 Z" fill="url(#shield)" stroke="rgba(255,255,255,0.3)" stroke-width="0.5"/>
  
  <!-- Dollar sign -->
  <g transform="translate(16, 16)">
    <path d="M-2 -4 L2 -4 C3 -4, 3.5 -3.5, 3.5 -2.5 C3.5 -1.5, 3 -1, 2 -1 L-2 -1 C-3 -1, -3.5 -0.5, -3.5 0.5 C-3.5 1.5, -3 2, -2 2 L2 2" 
          stroke="#10B981" stroke-width="1.2" stroke-linecap="round" fill="none"/>
    <line x1="0" y1="-5.5" x2="0" y2="-4" stroke="#10B981" stroke-width="1.2" stroke-linecap="round"/>
    <line x1="0" y1="2" x2="0" y2="3.5" stroke="#10B981" stroke-width="1.2" stroke-linecap="round"/>
  </g>
</svg> 